<svg xmlns="http://www.w3.org/2000/svg" width="45" height="43" fill="none"><path fill="#C99C3B" d="M7.302 4.199c-.091.73-.365 1.46-.639 2.008-.091.365-.274.548-.274.73-.09.183-.182.274-.182.274s-.274-.183-.548-.548c-.182-.365-.456-.912-.456-1.734 0-.821.365-1.643.73-2.19.091-.183.183-.274.274-.457.182-.091.182-.183.274-.274l.274-.274s.182.274.365.64c.091.273.091.456.182.82V4.2ZM4.199 9.676c.091.821 0 1.734-.091 2.373 0 .182-.092.365-.092.456 0 .183 0 .274-.091.365 0 .183-.091.365-.091.365s-.183-.182-.64-.456a3.968 3.968 0 0 1-.547-.639 3.375 3.375 0 0 1-.456-1.004c-.183-.821-.092-1.826.182-2.556.092-.365.183-.73.274-.913.091-.365.183-.456.183-.456l.182.183.457.456c.182.183.273.456.456.73.091.274.183.64.274 1.096ZM2.647 15.7c.365.821.548 1.825.73 2.556 0 .182.092.365.092.547 0 .183.09.274.09.457v.365h-.273c-.183 0-.365-.092-.639-.183s-.548-.274-.821-.456c-.274-.274-.548-.548-.822-1.004-.456-.822-.639-2.008-.639-2.83v-1.095c0-.274.091-.457.091-.457s.366.092.822.457c.182.182.456.365.73.73.183.182.457.548.64.913ZM2.92 22.09c.731.73 1.188 1.642 1.644 2.281 0 .091.091.183.091.274 0 .091.091.183.091.274.092.183.183.274.183.365l.183.365s-.092 0-.274.091c-.183 0-.457.092-.73 0-.548 0-1.37-.182-2.191-.912-.822-.73-1.37-1.826-1.643-2.739-.091-.273-.091-.456-.183-.639C0 21.268 0 21.085 0 20.903v-.457h.274c.182 0 .456.092.73.183.274.091.639.274.913.456.182.091.365.274.548.365.09.274.273.457.456.64ZM5.294 27.931c.091.091.183.091.365.183.092.09.274.182.365.182.183.183.457.274.64.457l.273.273c.091 0 .091.092.183.092.091 0 .091.09.182.09.183.184.365.275.548.457.365.274.639.548.821.73l.274.274s-.182.274-.365.366a3.09 3.09 0 0 1-.73.273c-.274.092-.73.183-1.095.183-.457 0-.913-.091-1.46-.365-1.096-.457-2.009-1.37-2.648-2.282-.182-.183-.274-.457-.456-.64-.092-.182-.183-.364-.274-.456-.183-.273-.274-.456-.274-.456s.091 0 .274-.091h.821c.183 0 .365 0 .548.091.183 0 .365.091.639.091.183.092.456.092.639.183.274.183.456.274.73.365ZM9.31 32.86c.548.091 1.096.274 1.643.456l.822.274c.091.091.274.091.365.183.091 0 .274.091.365.091.456.183.822.365 1.095.457.092.09.274.09.274.09.091 0 .091.092.091.092s-.09.091-.182.274c-.091.182-.365.365-.639.548a6.076 6.076 0 0 1-1.095.547c-.183.092-.457.092-.73.183h-.913c-.274 0-.64-.091-.913-.183-.274-.091-.639-.182-.913-.365-.274-.091-.548-.274-.913-.456-.273-.183-.547-.365-.73-.457-.091 0-.091-.091-.182-.091-.092 0-.092-.091-.183-.091l-.274-.274c-.182-.183-.365-.274-.456-.456l-.365-.366s.091-.09.274-.182c.182-.091.456-.183.821-.274.183 0 .365-.091.548-.091.182 0 .456-.091.639-.091h.73c.274.09.548.09.821.182ZM14.878 36.146c.274-.091.64-.091.913-.091.274 0 .639-.091.913-.091h3.468s0 .09-.09.365c-.092.182-.183.456-.366.821-.091.183-.183.365-.365.548-.091.091-.183.182-.183.274l-.273.273a2.768 2.768 0 0 1-.64.457c-.273.182-.547.274-.912.365-.365.091-.64.182-1.004.182-.365.092-.73.092-1.096 0-.365 0-.73-.09-1.095-.09-.365-.092-.639-.092-1.004-.183-.183 0-.274-.092-.456-.092-.183-.09-.274-.09-.366-.182a4.437 4.437 0 0 1-.638-.274l-.548-.274.274-.274c.182-.182.365-.365.73-.547.274-.183.73-.457 1.187-.64.365-.273.912-.456 1.551-.547Z"/><path fill="#C99C3B" d="M8.489 5.112c-.64.182-1.278.73-1.643 1.186-.183.274-.365.457-.457.64-.09.182-.182.273-.182.273s.274.091.73.183c.457 0 1.004 0 1.643-.274.64-.274 1.187-.73 1.552-1.096a642.578 642.578 0 0 1 .456-.456l.183-.183s-.274-.182-.64-.273c-.182-.092-.456-.092-.73-.092-.273-.091-.638-.091-.912.092ZM5.75 10.223c-.638.457-1.095 1.187-1.369 1.826-.09.182-.09.274-.182.456-.091.091-.091.274-.091.365-.092.183-.092.365-.092.365s.365 0 .822-.09c.274-.092.547-.092.821-.275.274-.091.548-.274.913-.547.548-.457 1.004-1.096 1.37-1.643 0-.183.182-.457.273-.64.091-.182.091-.273.091-.273s-.091 0-.182-.091c-.183 0-.365-.092-.548-.092-.274 0-.548 0-.821.092-.366.182-.73.365-1.004.547ZM4.381 15.882c-.547.64-.821 1.552-.912 2.374 0 .182 0 .365-.092.547V19.625s.092 0 .274-.091c.183-.092.365-.183.639-.274.274-.092.456-.274.73-.548.274-.183.548-.456.73-.821.457-.64.73-1.37.913-2.009 0-.182.092-.273.092-.456 0-.091.09-.274.09-.365.092-.183.092-.274.092-.274s-.365 0-.913.091c-.274.092-.547.183-.821.365-.183.092-.548.366-.822.64ZM4.838 21.633c-.274.821-.274 1.917-.092 2.738 0 .091 0 .183.092.274 0 .091.091.183.091.274.091.182.091.274.183.456 0 .091.09.183.09.274v.091s.092-.09.183-.182c.092-.091.274-.274.548-.457.365-.456.822-1.095 1.004-1.916.274-.822.274-1.735.274-2.374v-1.186s-.091 0-.274.091a4.45 4.45 0 0 1-.639.274c-.274.091-.548.274-.821.548-.092.09-.274.273-.365.456-.092.183-.183.365-.274.639ZM7.12 26.836v.365c0 .091 0 .274.091.365 0 .274.091.456.183.73 0 .091.09.274.09.365 0 .091.092.091.092.183 0 .091.091.091.091.182.092.183.183.457.365.64.274.364.457.73.64.912.182.183.273.365.273.365s.092-.091.183-.274l.365-.73c.091-.274.182-.639.274-1.004.091-.365.091-.821.091-1.278 0-.913-.274-1.825-.548-2.464-.182-.183-.182-.365-.273-.548-.092-.183-.092-.274-.183-.365-.091-.183-.091-.365-.091-.365s-.092.091-.274.182c-.183.092-.365.274-.548.548-.091.091-.182.274-.274.365-.09.183-.182.274-.273.456-.092.183-.183.366-.183.64-.091.273-.091.547-.091.73ZM10.862 31.126c.183.547.457 1.004.73 1.46.183.183.365.456.548.639a706.92 706.92 0 0 1 .548.548c.365.273.73.547 1.004.639.091.09.274.09.274.182.09 0 .09.091.09.091s0-.09.092-.273c0-.183.091-.457.091-.822 0-.365 0-.73-.09-1.187 0-.182-.092-.456-.092-.638-.091-.183-.091-.457-.183-.64-.365-.912-.913-1.642-1.369-2.281l-.091-.092-.091-.09-.183-.183-.274-.274-.274-.274s-.09.091-.182.274c-.091.182-.274.365-.365.73-.092.183-.092.365-.183.548-.091.182-.091.365-.091.547v.64c-.091 0 0 .182.091.456ZM9.767 1.187c-.822.73-1.278 1.551-1.46 2.19-.092.183-.092.365-.183.457 0 .09-.092.274-.092.365 0 .182-.09.274-.09.274s.09 0 .273-.092c.091 0 .183-.09.274-.182.091-.091.274-.091.365-.183a9.824 9.824 0 0 0 2.008-1.369C11.501 2.1 12.05 1.37 12.414.913c.091-.091.182-.274.274-.365.09-.092.182-.183.182-.274.365-.183.365-.274.365-.274h-.639c-.182 0-.274 0-.456.091-.183 0-.365.092-.548.183-.091 0-.182.091-.274.091-.09 0-.182.091-.273.091-.092.092-.183.092-.274.183-.091.091-.183.091-.274.183-.274 0-.365.09-.456.182-.092.091-.183.183-.274.183ZM15.7 33.864c.182.183.365.456.547.639.183.182.457.365.73.456.274.183.457.274.73.365.275.092.549.183.731.274.457.092.913.183 1.187.183h.456s0-.091-.091-.365c-.091-.183-.183-.548-.274-.822l-.274-.547c-.091-.092-.091-.183-.182-.274-.092-.092-.092-.183-.183-.274-.091-.183-.274-.365-.365-.548-.183-.182-.274-.365-.456-.547-.64-.73-1.46-1.278-2.1-1.644-.091-.09-.182-.09-.182-.182-.092-.091-.183-.091-.183-.091-.091-.092-.274-.183-.365-.183-.183-.091-.274-.182-.274-.182s-.091.09-.091.365c-.091.182-.091.456-.183.821 0 .365 0 .73.092 1.187.182.456.365.913.73 1.369ZM21.45 40.801c.64-.821.913-1.917 1.004-2.738 0-.457.092-.822.092-1.096v-.456s-.457.091-1.004.456a4.955 4.955 0 0 0-1.826 1.644c-.548.821-.821 1.734-1.004 2.464-.091.183-.091.365-.091.548 0 .182-.092.274-.092.365a.945.945 0 0 1-.09.365s.456 0 1.095-.183c.273-.09.639-.182 1.004-.456l.912-.913Z"/><path fill="#C99C3B" d="M23.458 40.801c-.638-.821-.912-1.917-1.004-2.738 0-.457-.09-.822-.09-1.096v-.456s.456.091 1.003.456a4.956 4.956 0 0 1 1.826 1.644c.547.821.821 1.734 1.004 2.464.091.183.091.365.091.548 0 .182.091.274.091.365 0 .182.092.365.092.365s-.457 0-1.096-.183c-.274-.09-.639-.182-1.004-.456-.274-.274-.639-.548-.913-.913ZM36.42 5.294c.639.274 1.278.73 1.643 1.187.182.274.365.456.456.639.092.182.183.274.183.274s-.365.09-.822.182c-.456 0-1.004 0-1.643-.274s-1.186-.73-1.551-1.095l-.274-.274-.183-.182a539.85 539.85 0 0 0-.182-.183s.274-.183.639-.274c.182-.091.456-.091.73-.091.365-.091.639 0 1.004.091ZM39.158 10.314c.64.457 1.096 1.187 1.37 1.826.09.182.09.274.182.456.091.092.091.274.091.365a.91.91 0 0 1 .091.366s-.365 0-.821-.092c-.274-.091-.548-.091-.822-.274-.273-.09-.547-.273-.912-.547-.548-.457-1.004-1.096-1.37-1.552-.182-.274-.273-.456-.365-.639-.09-.182-.09-.274-.09-.274s.09 0 .182-.091c.182 0 .365-.091.547-.091.274 0 .548 0 .822.091.456.091.73.274 1.095.456ZM40.527 15.974c.548.639.822 1.551.913 2.282 0 .182 0 .365.091.547v.73s-.09 0-.273-.09c-.183-.092-.366-.183-.64-.275-.273-.091-.456-.273-.73-.547a2.154 2.154 0 0 1-.73-.822c-.456-.639-.73-1.369-.913-2.008 0-.183-.09-.274-.09-.456 0-.092-.092-.274-.092-.366-.091-.182-.091-.273-.091-.273s.365 0 .912.091c.274.091.548.182.822.365.274.183.547.457.821.822ZM40.162 21.542c.274.821.274 1.916.092 2.647 0 .091 0 .182-.092.274 0 .09-.091.182-.091.273-.091.183-.091.274-.183.457 0 .091-.09.182-.09.274v.09s-.092-.09-.183-.182c-.092-.09-.274-.273-.548-.456-.365-.456-.822-1.095-1.095-1.917-.274-.821-.274-1.643-.274-2.373V19.534s.091 0 .274.09c.182.092.365.183.639.275.273.182.547.365.73.639.091.09.274.273.365.456.274.183.365.365.456.548ZM37.972 26.836v.365c0 .091 0 .274-.092.365 0 .274-.09.456-.182.73 0 .091-.092.274-.092.365 0 .092 0 .092-.09.183 0 .091-.092.091-.092.182-.091.183-.183.457-.365.64-.274.364-.457.638-.64.912-.182.183-.273.365-.273.365s-.091-.091-.182-.274l-.366-.73a14.9 14.9 0 0 1-.273-1.004c-.092-.365-.092-.821-.092-1.278 0-.913.274-1.825.548-2.464.091-.183.091-.365.183-.457.09-.182.09-.274.182-.365.091-.182.091-.274.091-.274s.092.092.274.183c.183.091.365.274.548.548.091.09.182.274.274.365.09.182.182.274.273.456.092.183.183.365.183.548.183.091.183.365.183.639ZM34.32 31.126c-.182.547-.365 1.004-.73 1.369-.182.182-.365.456-.547.639l-.274.274-.274.273c-.365.274-.73.548-1.004.64-.091.09-.274.09-.274.182-.091 0-.091.091-.091.091s0-.091-.091-.273c0-.183-.092-.457-.092-.822 0-.365 0-.73.091-1.187 0-.182.092-.456.092-.639.091-.182.091-.456.182-.639.365-.912.913-1.643 1.278-2.281l.092-.092.09-.091.183-.183c.092-.09.183-.182.274-.273l.274-.274s.091.091.182.274c.092.182.274.365.366.73.09.182.09.365.182.547.092.183.092.366.092.548v.64c.09 0 .09.273 0 .547ZM29.483 33.864c-.183.183-.365.456-.548.639a1.987 1.987 0 0 1-.73.456 2.732 2.732 0 0 1-.73.365 6.288 6.288 0 0 0-.73.274c-.457.092-.913.183-1.187.183H25.1s0-.091.092-.365c.091-.183.182-.548.274-.822l.273-.547c.092-.092.092-.183.183-.274.091-.092.091-.183.183-.274.09-.183.273-.365.365-.548.182-.182.273-.365.456-.547.639-.73 1.46-1.278 2.1-1.644.09-.09.182-.09.182-.182.091-.091.183-.091.183-.091.09-.092.273-.183.365-.183.182-.091.273-.182.273-.182s.092.09.092.365c.091.182.091.456.182.821 0 .365 0 .73-.091 1.187-.183.456-.365.913-.73 1.369Z"/><path fill="#C99C3B" d="M37.606 4.381c.092.73.366 1.46.64 2.009.09.273.273.547.273.73.092.182.183.274.183.274s.274-.183.547-.548c.274-.365.548-.913.457-1.734 0-.73-.365-1.552-.73-2.191a1.258 1.258 0 0 0-.274-.365l-.274-.274a1.13 1.13 0 0 0-.183-.274s-.182.274-.365.64a1.72 1.72 0 0 0-.182.73c-.183.364-.183.638-.092 1.003ZM40.71 9.767a10.307 10.307 0 0 0 0 2.373c0 .183.091.365.091.456 0 .183 0 .274.092.365 0 .183.09.366.09.366s.366-.092.731-.457c.183-.182.365-.365.548-.639.182-.274.365-.639.456-1.004.183-.821.091-1.825-.182-2.556a11.49 11.49 0 0 0-.274-.912l-.183-.365s-.091 0-.182.09l-.457.457c-.182.183-.274.457-.456.73-.091.366-.274.64-.274 1.096ZM42.262 15.7c-.365.821-.548 1.734-.73 2.464 0 .183-.092.365-.092.548 0 .183-.091.274-.091.365v.365h.274c.182 0 .365-.091.639-.182.273-.092.547-.274.821-.457.274-.274.548-.547.822-1.004.456-.821.639-1.917.639-2.83v-1.095c0-.274-.092-.456-.092-.456s-.365.091-.821.456c-.183.183-.457.365-.73.64-.183.456-.457.82-.64 1.186ZM42.08 21.998c-.64.73-1.188 1.643-1.644 2.282-.091.091-.091.183-.182.274-.092.091-.092.182-.092.274-.091.182-.182.274-.182.365l-.183.365s.091 0 .274.091c.183 0 .456.091.73 0 .548 0 1.37-.182 2.19-.913.731-.73 1.37-1.825 1.644-2.738.091-.183.091-.456.182-.639.092-.182.092-.365.092-.548.091-.273.091-.456.091-.456h-.274c-.182 0-.456.091-.73.183a4.265 4.265 0 0 0-.913.456c-.182.091-.365.274-.547.365-.183.274-.274.456-.457.64ZM39.797 27.931c-.091.091-.274.091-.365.183-.091.09-.274.182-.365.182-.183.183-.456.274-.639.457l-.274.273c-.091 0-.091.092-.182.092-.092 0-.092.09-.183.09-.183.183-.365.275-.548.457a7.45 7.45 0 0 0-.821.73l-.274.274s.091.092.274.183c.182.091.365.182.73.274.274.091.73.182 1.096.182.456 0 .912-.091 1.46-.365 1.004-.456 2.008-1.369 2.647-2.19.182-.183.274-.457.365-.64.091-.182.183-.365.274-.456.183-.274.274-.456.274-.456s-.091 0-.274-.091h-.822c-.182 0-.365 0-.547.09-.183 0-.365.092-.64.092-.182.091-.456.091-.638.183-.091.182-.365.273-.548.456ZM35.78 32.769c-.547.091-1.094.274-1.642.456-.274.091-.548.183-.73.274-.092.091-.274.091-.365.182-.092 0-.274.092-.365.092-.457.182-.822.365-1.096.456-.091.092-.274.092-.274.092-.091 0-.091.09-.091.09s.091.092.183.275c.09.182.365.365.639.547.273.183.639.457 1.095.548.182.091.456.091.73.183.274 0 .548.09.913 0 .274 0 .639-.092.913-.183s.639-.183.912-.365c.274-.091.548-.274.913-.457.274-.182.548-.365.73-.456.092 0 .092-.091.183-.091s.091-.091.183-.091c.09-.092.182-.183.273-.274.183-.183.365-.274.457-.457l.365-.365s-.091-.091-.274-.182c-.183-.092-.456-.183-.822-.274-.182 0-.365-.091-.547-.091-.183 0-.457-.092-.64-.092h-.73c-.364.183-.638.183-.912.183ZM33.955 3.012a9.959 9.959 0 0 0 1.917 1.278c.183.091.274.091.365.183.183 0 .274.09.365.09.183.092.274.092.274.092s0-.091-.091-.274c0-.091-.091-.182-.091-.365 0-.091-.092-.274-.183-.456-.274-.64-.73-1.46-1.46-2.1-.092-.09-.183-.182-.274-.182-.091-.091-.183-.091-.274-.183-.091-.091-.182-.091-.274-.182-.091-.092-.182-.092-.274-.092-.09 0-.182-.09-.273-.09-.092 0-.183-.092-.274-.092-.092 0-.183-.091-.274-.091h-.274c-.182 0-.274 0-.456-.092h-.639s.091.092.182.274l.183.183c.091.091.182.182.274.365a8.851 8.851 0 0 0 1.551 1.734ZM30.304 36.146c-.273-.091-.639-.091-.912-.091-.274 0-.64-.091-.913-.091H25.01s0 .09.091.365c.092.182.183.456.366.821.09.183.182.365.365.548.091.091.182.182.182.274l.274.273c.183.183.365.366.639.457.274.182.548.274.913.365.365.091.639.182 1.004.182.365.092.73.092 1.095 0 .365 0 .73-.09 1.096-.09.365-.092.73-.092 1.004-.183.182 0 .273-.092.456-.092.183-.09.274-.09.365-.182.274-.091.456-.183.639-.274l.548-.274-.274-.274c-.183-.182-.365-.365-.73-.547a6.954 6.954 0 0 0-1.187-.64c-.365-.273-.913-.456-1.552-.547Z"/></svg>